<?xml version="1.0" encoding="utf-8"?>
<!-- Generator: Adobe Illustrator 24.0.1, SVG Export Plug-In . SVG Version: 6.00 Build 0)  -->
<svg version="1.1" id="Camada_1" xmlns="http://www.w3.org/2000/svg" xmlns:xlink="http://www.w3.org/1999/xlink" x="0px" y="0px"
	 viewBox="0 0 163 40" style="enable-background:new 0 0 163 40;" xml:space="preserve">
<style type="text/css">
	.st0{fill:#E6E8EB;}
	.st1{fill:#04D361;}
	.st2{fill:#8257E5;}
</style>
<path class="st0" d="M58.2,29V12.2h7.1c1,0,1.9,0.2,2.7,0.7c0.8,0.5,1.4,1.1,1.9,1.9c0.5,0.8,0.7,1.7,0.7,2.7c0,1-0.2,2-0.7,2.8
	c-0.5,0.8-1.1,1.5-1.9,2c-0.8,0.5-1.7,0.7-2.7,0.7h-3.6v6H58.2z M61.6,19.9h3.3c0.6,0,1.1-0.2,1.5-0.6c0.4-0.4,0.6-1,0.6-1.7
	s-0.2-1.2-0.6-1.6c-0.4-0.4-0.9-0.6-1.5-0.6h-3.3V19.9z"/>
<path class="st0" d="M79,29.2c-1.3,0-2.4-0.3-3.5-0.8c-1-0.6-1.8-1.4-2.4-2.4c-0.6-1-0.9-2.1-0.9-3.4c0-1.3,0.3-2.4,0.9-3.4
	c0.6-1,1.4-1.8,2.4-2.3c1-0.6,2.2-0.9,3.5-0.9c1.3,0,2.4,0.3,3.4,0.9c1,0.6,1.8,1.3,2.4,2.3c0.6,1,0.9,2.1,0.9,3.4
	c0,1.3-0.3,2.4-0.9,3.4c-0.6,1-1.4,1.8-2.4,2.4C81.4,29,80.2,29.2,79,29.2z M79,26.4c0.6,0,1.2-0.2,1.7-0.5c0.5-0.3,0.9-0.8,1.2-1.3
	c0.3-0.6,0.4-1.2,0.4-1.9c0-0.7-0.1-1.4-0.4-1.9c-0.3-0.6-0.7-1-1.2-1.3c-0.5-0.3-1.1-0.5-1.7-0.5c-0.7,0-1.2,0.2-1.8,0.5
	s-0.9,0.8-1.2,1.3c-0.3,0.6-0.4,1.2-0.4,1.9c0,0.7,0.1,1.4,0.4,1.9c0.3,0.6,0.7,1,1.2,1.3C77.7,26.2,78.3,26.4,79,26.4z"/>
<path class="st0" d="M93.2,29.2c-1.1,0-2.1-0.3-3-0.8c-0.9-0.6-1.6-1.4-2.1-2.4c-0.5-1-0.7-2.1-0.7-3.4c0-1.3,0.2-2.4,0.7-3.4
	c0.5-1,1.2-1.8,2.1-2.3c0.9-0.6,1.9-0.9,3-0.9c0.8,0,1.5,0.2,2.2,0.5c0.7,0.3,1.3,0.7,1.7,1.2v-6.5h3.3V29h-3.1l0-1.5
	c-0.4,0.5-1,0.9-1.7,1.2C94.8,29.1,94,29.2,93.2,29.2z M93.9,26.5c1,0,1.8-0.4,2.4-1.1c0.6-0.7,0.9-1.6,0.9-2.8
	c0-1.2-0.3-2.1-0.9-2.8c-0.6-0.7-1.4-1.1-2.4-1.1c-1,0-1.8,0.4-2.4,1.1c-0.6,0.7-0.9,1.6-0.9,2.8c0,1.1,0.3,2.1,0.9,2.8
	C92.2,26.2,93,26.5,93.9,26.5z"/>
<path class="st0" d="M109.2,29.2c-1.2,0-2.3-0.3-3.2-0.9c-0.9-0.6-1.7-1.4-2.3-2.4c-0.5-1-0.8-2.1-0.8-3.4c0-1.2,0.3-2.4,0.8-3.4
	c0.6-1,1.3-1.8,2.3-2.4c1-0.6,2-0.9,3.2-0.9c1.1,0,2.2,0.2,3.1,0.6c0.9,0.4,1.7,1,2.2,1.8l-1.8,2.2c-0.3-0.5-0.8-0.9-1.4-1.2
	c-0.6-0.3-1.2-0.5-1.8-0.5c-0.7,0-1.3,0.2-1.8,0.5c-0.5,0.3-0.9,0.8-1.2,1.3c-0.3,0.6-0.4,1.2-0.4,1.9c0,0.7,0.2,1.3,0.5,1.9
	c0.3,0.6,0.7,1,1.2,1.3c0.5,0.3,1.1,0.5,1.8,0.5c0.6,0,1.2-0.1,1.7-0.4c0.5-0.3,1-0.7,1.4-1.2l1.8,2.2c-0.5,0.7-1.3,1.3-2.3,1.7
	C111.3,29,110.3,29.2,109.2,29.2z"/>
<path class="st0" d="M121.5,29.2c-1.1,0-2-0.3-2.9-0.9s-1.5-1.4-2-2.4c-0.5-1-0.7-2.1-0.7-3.4c0-1.3,0.2-2.4,0.7-3.4
	c0.5-1,1.2-1.8,2.1-2.3c0.9-0.6,1.9-0.8,3-0.8c0.9,0,1.7,0.2,2.4,0.6c0.7,0.4,1.2,0.8,1.6,1.4v-1.7h3.3V29h-3.3v-1.7
	c-0.4,0.6-1,1-1.8,1.4C123.1,29.1,122.3,29.2,121.5,29.2z M122.4,26.4c1,0,1.8-0.3,2.4-1c0.6-0.7,0.9-1.6,0.9-2.7
	c0-1.1-0.3-2-0.9-2.7s-1.4-1-2.4-1c-1,0-1.7,0.3-2.4,1c-0.6,0.7-0.9,1.6-0.9,2.7c0,1.1,0.3,2,0.9,2.7
	C120.6,26,121.4,26.4,122.4,26.4z"/>
<path class="st0" d="M136.5,29.2c-1.2,0-2.2-0.2-3.1-0.6c-0.9-0.4-1.6-0.9-2.2-1.6l2.1-1.8c0.5,0.5,1,0.9,1.6,1.2
	c0.6,0.2,1.2,0.3,1.8,0.3c0.5,0,0.9-0.1,1.2-0.3c0.3-0.2,0.5-0.5,0.5-0.9c0-0.4-0.1-0.6-0.4-0.8c-0.3-0.2-1-0.4-2.1-0.7
	c-1.6-0.4-2.8-1-3.4-1.7c-0.6-0.6-0.9-1.4-0.9-2.4c0-0.8,0.2-1.4,0.7-2c0.4-0.6,1-1,1.8-1.3c0.7-0.3,1.5-0.5,2.4-0.5
	c1,0,1.9,0.2,2.8,0.5c0.9,0.4,1.6,0.8,2.2,1.4l-1.8,1.9c-0.4-0.4-1-0.8-1.6-1c-0.6-0.3-1.1-0.4-1.6-0.4c-1.2,0-1.7,0.4-1.7,1.2
	c0,0.4,0.2,0.7,0.5,0.9c0.3,0.2,1,0.5,2.2,0.8c1.5,0.4,2.6,0.9,3.2,1.6c0.5,0.6,0.8,1.3,0.8,2.2c0,0.8-0.2,1.5-0.7,2.1
	c-0.4,0.6-1,1.1-1.8,1.4C138.3,29.1,137.5,29.2,136.5,29.2z"/>
<path class="st0" d="M145.2,29v-9.7h-2.4v-3h2.4v-3.2h3.3v3.2h2.7v3h-2.7V29H145.2z"/>
<path class="st0" d="M153.4,29V16.3h3.2l0,2.1c0.4-0.7,1-1.2,1.6-1.7c0.7-0.4,1.4-0.7,2.2-0.7c0.3,0,0.6,0,0.8,0.1
	c0.3,0,0.5,0.1,0.6,0.1l-0.9,3.6c-0.2-0.1-0.4-0.2-0.7-0.2c-0.3-0.1-0.5-0.1-0.8-0.1c-0.8,0-1.4,0.3-2,0.8c-0.5,0.5-0.8,1.2-0.8,2
	V29H153.4z"/>
<path class="st0" d="M38.1,19.9c0,3.2-0.8,6.3-2.3,9c-0.2,0.4-0.4,0.7-0.6,1.1c-0.1,0.2-0.3,0.3-0.4,0.4c-0.2,0.1-0.4,0.2-0.6,0.2
	s-0.4,0-0.6,0c-0.2,0-0.4-0.1-0.6-0.2c-0.2-0.1-0.3-0.3-0.4-0.4c-0.1-0.2-0.2-0.4-0.2-0.6c0-0.2,0-0.4,0-0.6c0-0.2,0.1-0.4,0.2-0.6
	c1.5-2.3,2.3-4.9,2.5-7.6c0.1-2.7-0.5-5.4-1.8-7.8S30,8.5,27.7,7.1S22.7,5,20,5c-5.2,0-9.8,2.7-12.5,6.8C5.9,14.3,5,17.1,5,20
	c0,2.9,0.9,5.8,2.5,8.2c0.2,0.3,0.3,0.8,0.2,1.2c-0.1,0.4-0.3,0.8-0.7,1c-0.3,0.2-0.8,0.3-1.2,0.2c-0.4-0.1-0.8-0.3-1-0.7
	c-1.8-2.7-2.8-5.8-3-9.1c-0.2-3.2,0.6-6.5,2.1-9.3c1.5-2.9,3.8-5.3,6.5-7c2.8-1.7,5.9-2.6,9.2-2.7c0.1,0,0.2,0,0.3,0
	c4.8,0,9.4,1.9,12.8,5.3C36.2,10.5,38.1,15.1,38.1,19.9z"/>
<path class="st1" d="M9.1,22.8l2.8,14.1c0.2,0.8,1,1.4,1.8,1.2c0.8-0.2,1.4-1,1.2-1.8l-2.8-14.1c-0.2-0.8-1-1.4-1.8-1.2
	C9.4,21.1,8.9,21.9,9.1,22.8z"/>
<path class="st0" d="M11.8,36.6l-0.7,0.1c-1.1,0.2-2.2,0-3.1-0.6c-0.9-0.6-1.6-1.5-1.9-2.5c0-0.1,0-0.2-0.1-0.2l-1-5.1
	c-0.2-1.1,0-2.3,0.6-3.2c0.6-0.9,1.6-1.6,2.7-1.8l0.7-0.1l1.3,6.3L11.8,36.6z"/>
<path class="st0" d="M11.8,36.6l-0.7,0.1c-1.1,0.2-2.2,0-3.1-0.6c-0.9-0.6-1.6-1.5-1.9-2.5c1.5-1.3,2.9-2.7,4.2-4.3L11.8,36.6z"/>
<path class="st0" d="M36.1,27.1l-0.4,1.8c-0.2,0.4-0.4,0.7-0.6,1c-0.1,0.2-0.3,0.3-0.4,0.4c-0.2,0.1-0.4,0.2-0.6,0.2
	c-0.2,0-0.4,0-0.6,0c-0.2,0-0.4-0.1-0.6-0.2c-0.2-0.1-0.3-0.3-0.4-0.4c-0.1-0.2-0.2-0.4-0.2-0.6c0-0.2,0-0.4,0-0.6
	c0-0.2,0.1-0.4,0.2-0.6c1.1-1.6,1.8-3.4,2.2-5.3c0.6,0.5,1,1.1,1.3,1.9C36.2,25.6,36.3,26.3,36.1,27.1z"/>
<path class="st2" d="M34.3,8.8l-2.2,2.2c-1.4-1.9-3.2-3.4-5.3-4.5C24.6,5.5,22.3,5,20,5c-5.2,0-9.8,2.7-12.5,6.8L5.2,9.6
	C6.8,7.2,9,5.3,11.5,4c2.5-1.3,5.3-2.1,8.2-2.1c0.1,0,0.2,0,0.3,0c2.8,0,5.5,0.6,8,1.8C30.4,4.9,32.6,6.7,34.3,8.8z"/>
<path class="st1" d="M27.8,22.2L25,36.3c-0.2,0.8,0.4,1.7,1.2,1.8c0.8,0.2,1.7-0.4,1.8-1.2l2.8-14.1c0.2-0.8-0.4-1.7-1.2-1.8
	S28,21.3,27.8,22.2z"/>
<path class="st0" d="M34.9,28.3l-1,5.1c-0.2,1.1-0.9,2.1-1.8,2.7c-0.9,0.6-2.1,0.9-3.2,0.6l-0.7-0.1l0.7-3.7l2-9.8l0.7,0.1
	c1.1,0.2,2.1,0.9,2.7,1.8c0.1,0.1,0.2,0.3,0.2,0.4C35,26.3,35.1,27.3,34.9,28.3z"/>
<path class="st0" d="M34.9,28.3l-1,5.1c-0.2,1.1-0.9,2.1-1.8,2.7c-0.9,0.6-2.1,0.9-3.2,0.6l-0.7-0.1l0.7-3.7c2.1-2.3,4-4.7,5.6-7.4
	C35,26.3,35.1,27.3,34.9,28.3z"/>
</svg>
